<?xml version="1.0" encoding="utf-8"?>
<!-- Generator: Adobe Illustrator 22.0.0, SVG Export Plug-In . SVG Version: 6.00 Build 0)  -->
<svg version="1.1" id="图层_1" xmlns="http://www.w3.org/2000/svg" xmlns:xlink="http://www.w3.org/1999/xlink" x="0px" y="0px"
	 viewBox="0 0 859 380" style="enable-background:new 0 0 859 380;" xml:space="preserve">
<style type="text/css">
	.st0{fill:#6083C9;}
	.st1{fill:#3C7DFF;}
	.st2{fill:#707070;}
</style>
<g>
	<g>
		<path class="st0" d="M327.6,122.3c-4.1,0-8-0.3-11.6-0.8c-3.7-0.5-6.6-1.1-8.7-1.7v-13.4c1.1,0.4,2.4,0.8,3.9,1.1
			c1.5,0.3,3.2,0.6,4.9,0.9c1.7,0.2,3.5,0.4,5.4,0.6c1.8,0.2,3.7,0.3,5.5,0.3c2.3,0,4.2-0.1,5.8-0.4c1.6-0.3,2.9-0.7,3.8-1.4
			c1-0.7,1.7-1.5,2.1-2.6c0.4-1.1,0.6-2.4,0.6-3.9c0-1.3-0.2-2.5-0.5-3.4c-0.3-0.9-1-1.8-1.9-2.5c-0.9-0.7-2.2-1.4-3.8-2
			c-1.6-0.6-3.8-1.2-6.5-1.9c-3.8-0.9-6.9-1.8-9.3-2.9c-2.5-1-4.4-2.3-5.9-3.8c-1.5-1.5-2.5-3.3-3.1-5.5c-0.6-2.1-0.9-4.8-0.9-8
			c0-7.4,2.2-12.6,6.7-15.8c4.5-3.1,10.8-4.7,18.9-4.7c4,0,7.5,0.3,10.5,0.8c3.1,0.5,5.5,1.1,7.4,1.8v12.6c-0.9-0.3-2-0.6-3.3-0.9
			c-1.3-0.3-2.8-0.6-4.4-0.9c-1.6-0.3-3.2-0.5-4.9-0.6c-1.6-0.1-3.2-0.2-4.7-0.2c-4,0-6.8,0.5-8.6,1.5c-1.8,1-2.7,3-2.7,5.9
			c0,1.1,0.1,2.1,0.4,2.9c0.3,0.8,0.8,1.5,1.7,2.2c0.8,0.6,2,1.2,3.6,1.8c1.6,0.5,3.6,1.1,6.2,1.7c4.2,1,7.6,2.1,10.2,3.4
			c2.7,1.2,4.7,2.7,6.2,4.4s2.5,3.7,3.1,6c0.5,2.3,0.8,5.1,0.8,8.4c0,6.8-2.1,12.1-6.2,15.7C344.1,120.5,337.2,122.3,327.6,122.3z"
			/>
		<path class="st0" d="M398.9,65.9c3.4,0,6.2,0.4,8.5,1.2c2.3,0.8,4.2,1.9,5.6,3.5c1.4,1.5,2.4,3.4,3,5.7c0.6,2.2,0.9,4.9,0.9,7.9
			v37.1h-14.6V87.9c0-3.7-0.6-6.3-1.8-7.9c-1.2-1.5-3.6-2.3-7-2.3c-3,0-5.5,0.6-7.4,1.7c-1.9,1.1-3.3,3.2-4.1,6.1v35.6h-14.6V44.8
			h14.6v28.8c1.5-2.5,3.7-4.5,6.6-5.7C391.4,66.5,394.9,65.9,398.9,65.9z"/>
		<path class="st0" d="M455.2,122.3c-4.2,0-8-0.4-11.3-1.3c-3.3-0.9-6.1-2.4-8.4-4.5c-2.2-2.1-4-5-5.2-8.7
			c-1.2-3.6-1.8-8.2-1.8-13.7c0-5.5,0.6-10.1,1.8-13.7c1.2-3.6,2.9-6.5,5.2-8.7c2.2-2.1,5-3.7,8.4-4.5c3.3-0.9,7.1-1.3,11.3-1.3
			c4.2,0,8,0.4,11.3,1.3c3.3,0.9,6.1,2.4,8.3,4.5c2.2,2.1,4,5,5.2,8.7c1.2,3.6,1.8,8.2,1.8,13.7c0,5.5-0.6,10.1-1.8,13.7
			c-1.2,3.6-2.9,6.5-5.2,8.7c-2.3,2.1-5,3.7-8.3,4.5C463.2,121.8,459.4,122.3,455.2,122.3z M455.2,111.2c2.2,0,4.1-0.3,5.6-0.8
			c1.5-0.5,2.7-1.5,3.6-2.8c0.9-1.3,1.5-3.1,1.9-5.3c0.4-2.2,0.6-5,0.6-8.3c0-3.3-0.2-6-0.6-8.3c-0.4-2.2-1.1-4-2-5.3
			c-0.9-1.3-2.1-2.3-3.6-2.9c-1.5-0.6-3.3-0.9-5.5-0.9s-4.1,0.3-5.6,0.9c-1.5,0.6-2.7,1.5-3.6,2.9c-0.9,1.3-1.5,3.1-1.9,5.3
			c-0.4,2.2-0.6,5-0.6,8.3c0,3.3,0.2,6,0.6,8.3c0.4,2.2,1.1,4,2,5.3c0.9,1.3,2.1,2.2,3.6,2.8C451.1,110.9,453,111.2,455.2,111.2z"/>
		<path class="st0" d="M517.5,122.3c-4.2,0-8-0.4-11.3-1.3c-3.3-0.9-6.1-2.4-8.4-4.5c-2.2-2.1-4-5-5.2-8.7
			c-1.2-3.6-1.8-8.2-1.8-13.7c0-5.5,0.6-10.1,1.8-13.7c1.2-3.6,2.9-6.5,5.2-8.7c2.2-2.1,5-3.7,8.4-4.5c3.3-0.9,7.1-1.3,11.3-1.3
			c4.2,0,8,0.4,11.3,1.3c3.3,0.9,6.1,2.4,8.3,4.5c2.2,2.1,4,5,5.2,8.7c1.2,3.6,1.8,8.2,1.8,13.7c0,5.5-0.6,10.1-1.8,13.7
			c-1.2,3.6-2.9,6.5-5.2,8.7c-2.3,2.1-5,3.7-8.3,4.5C525.5,121.8,521.7,122.3,517.5,122.3z M517.5,111.2c2.2,0,4.1-0.3,5.6-0.8
			c1.5-0.5,2.7-1.5,3.6-2.8c0.9-1.3,1.5-3.1,1.9-5.3c0.4-2.2,0.6-5,0.6-8.3c0-3.3-0.2-6-0.6-8.3c-0.4-2.2-1.1-4-2-5.3
			c-0.9-1.3-2.1-2.3-3.6-2.9c-1.5-0.6-3.3-0.9-5.5-0.9s-4.1,0.3-5.6,0.9c-1.5,0.6-2.7,1.5-3.6,2.9c-0.9,1.3-1.5,3.1-1.9,5.3
			c-0.4,2.2-0.6,5-0.6,8.3c0,3.3,0.2,6,0.6,8.3c0.4,2.2,1.1,4,2,5.3c0.9,1.3,2.1,2.2,3.6,2.8C513.5,110.9,515.3,111.2,517.5,111.2z"
			/>
		<path class="st0" d="M605.6,121.3h-17.8l-14.7-23.2h-2.5v23.2H556V44.8h14.6v42.2h3.1l14.2-20h16.9l-19.3,25.4L605.6,121.3z"/>
	</g>
	<g>
		<path class="st1" d="M388.8,253.6v24.8h-80.6V147.8h28.6v105.8H388.8z"/>
		<path class="st1" d="M397.5,292.5c8.5,0,14.7-1.2,18.4-3.7c3.8-2.4,6.4-6.2,7.9-11.4l-39.5-100.7h30.3l23.9,72.5h1.1l22.6-72.5
			h29.4L457.5,269c-3.4,9-6.7,16.6-10.1,22.7c-3.3,6.1-7.2,10.9-11.7,14.5c-4.5,3.6-9.8,6.1-15.9,7.6c-6.1,1.5-13.6,2.3-22.4,2.3
			V292.5z"/>
		<path class="st1" d="M565.4,174.9c6.3,0,11.6,0.7,15.9,2.2c4.3,1.4,7.8,3.6,10.4,6.5c2.6,2.9,4.5,6.4,5.6,10.6
			c1.1,4.2,1.7,9.1,1.7,14.8v69.5h-27.3v-62.3c0-3.4-0.3-6.3-0.8-8.8c-0.5-2.4-1.3-4.4-2.5-5.9c-1.2-1.5-2.9-2.6-5-3.3
			c-2.1-0.7-4.9-1-8.3-1c-5.6,0-10.3,1-13.9,3c-3.6,2-6.2,5.6-7.7,10.9v67.4h-27.3V176.8h27.3V189c2.8-4.8,6.9-8.3,12.4-10.6
			C551.5,176.1,558,174.9,565.4,174.9z"/>
		<path class="st1" d="M719.7,176.8v93.7c0,7-0.9,13.3-2.8,18.9c-1.9,5.6-5.1,10.4-9.5,14.3c-4.5,4-10.3,7-17.4,9.1
			c-7.2,2.1-16,3.2-26.5,3.2c-4.6,0-9.6-0.2-14.9-0.7c-5.3-0.4-10-1-14.1-1.8V292c4,1,8.4,1.8,13.2,2.3c4.8,0.5,9.3,0.8,13.7,0.8
			c5.5,0,10.3-0.4,14.2-1.3c4-0.9,7.2-2.3,9.7-4.2c2.5-1.9,4.4-4.5,5.6-7.8c1.2-3.3,1.8-7.3,1.8-12.2v-5.5
			c-2.1,4.5-5.5,8.1-10.1,10.6c-4.6,2.6-11.5,3.9-20.6,3.9c-8.3,0-15.1-1.3-20.3-3.8c-5.3-2.5-9.5-6-12.6-10.5
			c-3.1-4.5-5.3-9.9-6.5-16.3c-1.2-6.3-1.8-13.4-1.8-21.2c0-6.9,0.6-13.5,1.8-19.8c1.2-6.3,3.4-11.8,6.5-16.6
			c3.1-4.8,7.3-8.5,12.6-11.3c5.3-2.8,12-4.1,20.3-4.1c9.3,0,16.2,1.3,20.8,3.9c4.6,2.6,7.9,6.2,9.9,11v-13H719.7z M670,258.5
			c5,0,9.1-0.7,12.2-2.2c3.1-1.4,5.6-3.5,7.3-6.2c1.8-2.7,2.9-6,3.5-10c0.6-4,0.8-8.4,0.8-13.5c0-4.9-0.3-9.3-0.8-13.1
			c-0.6-3.8-1.7-7.1-3.5-9.9c-1.8-2.8-4.2-4.9-7.3-6.3c-3.1-1.4-7.2-2.2-12.2-2.2c-4.8,0-8.6,0.9-11.4,2.6c-2.8,1.8-5,4.1-6.4,7
			c-1.4,2.9-2.4,6.2-2.8,10c-0.4,3.8-0.7,7.7-0.7,11.9c0,4.4,0.2,8.5,0.7,12.3c0.4,3.8,1.4,7.2,2.9,10.1c1.5,2.9,3.7,5.2,6.5,6.9
			C661.7,257.6,665.4,258.5,670,258.5z"/>
		<path class="st1" d="M775.1,279.6c-5.9,0-11.6-0.3-17.1-0.8c-5.5-0.6-10.5-1.3-15.1-2.4v-22.8c4.9,1.5,10.1,2.7,15.5,3.5
			c5.5,0.8,10.5,1.2,15.2,1.2c5.9,0,10.2-0.7,12.9-2.1c2.7-1.4,4-4.1,4-8.1c0-2-0.3-3.7-0.8-5.1c-0.5-1.4-1.5-2.6-2.9-3.6
			c-1.4-1-3.4-1.9-5.9-2.7c-2.5-0.8-5.8-1.7-10-2.7c-5.4-1.3-9.9-2.7-13.4-4.2c-3.5-1.6-6.3-3.4-8.3-5.6c-2-2.2-3.4-4.8-4.1-7.9
			c-0.8-3.1-1.1-6.7-1.1-11c0-4.8,0.7-9,2.2-12.8c1.4-3.8,3.8-6.9,7.1-9.5c3.3-2.6,7.5-4.5,12.6-5.9c5.1-1.4,11.4-2.1,18.8-2.1
			c5.6,0,11,0.3,16.1,0.9c5.1,0.6,9,1.4,11.8,2.4l-1.1,20.9c-1.4-0.4-3.1-0.8-5.1-1.2c-2-0.4-4.2-0.8-6.5-1.2
			c-2.3-0.4-4.7-0.7-7.2-0.9c-2.4-0.3-4.8-0.4-7.1-0.4c-6.3,0-10.5,0.7-12.7,2.1c-2.2,1.4-3.3,3.8-3.3,7.3c0,1.6,0.2,2.9,0.7,4
			c0.4,1,1.3,1.9,2.7,2.6c1.4,0.8,3.3,1.5,5.7,2.3s5.7,1.6,9.7,2.6c5.5,1.4,10.1,2.9,13.7,4.6c3.6,1.7,6.5,3.7,8.7,6
			c2.1,2.3,3.6,5.1,4.4,8.5c0.8,3.3,1.2,7.3,1.2,12c0,6-0.9,11.1-2.8,15.2c-1.9,4.1-4.6,7.4-8.1,9.9c-3.5,2.5-7.8,4.3-13,5.5
			C787.4,279,781.6,279.6,775.1,279.6z"/>
	</g>
	<g>
		<path class="st2" d="M138.1,272.3c-57.8,0-104.9-47-104.9-104.9c0-57.8,47-104.9,104.9-104.9S243,109.7,243,167.5
			C243,225.3,196,272.3,138.1,272.3z M138.1,102.6c-35.8,0-64.9,29.1-64.9,64.9s29.1,64.9,64.9,64.9s64.9-29.1,64.9-64.9
			S173.9,102.6,138.1,102.6z"/>
	</g>
</g>
</svg>
