<?xml version="1.0" standalone="no"?>
<!DOCTYPE svg PUBLIC "-//W3C//DTD SVG 1.1//EN" "http://www.w3.org/Graphics/SVG/1.1/DTD/svg11.dtd" >
<!--
2013-9-30: Created.
-->
<svg>
<metadata>
Created by iconfont
</metadata>
<defs>

<font id="iconfont" horiz-adv-x="1024" >
  <font-face
    font-family="iconfont"
    font-weight="500"
    font-stretch="normal"
    units-per-em="1024"
    ascent="896"
    descent="-128"
  />
    <missing-glyph />
    
    <glyph glyph-name="setting-fill" unicode="&#58975;" d="M868.352 632.832l-318.976 184.32c-23.04 13.312-51.712 13.312-74.752 0l-318.976-184.32c-23.04-13.312-37.376-38.4-37.376-65.024v-368.64c0-26.624 14.336-51.712 37.376-65.024l318.976-184.32c11.776-6.656 24.576-10.24 37.376-10.24s26.112 3.072 37.376 10.24l318.976 184.32c23.04 13.312 37.376 38.4 37.376 65.024v368.64c0 26.624-14.336 51.712-37.376 65.024z m-179.2-321.024c-4.608-4.608-10.752-6.656-16.896-6.656-6.656 0-13.312 2.56-18.432 7.68L519.68 455.68c-2.56 3.072-6.144 3.072-7.68 3.072s-5.12-0.512-7.68-3.072L368.64 312.832c-9.728-10.24-25.088-10.752-35.328-1.024s-10.752 25.088-1.024 35.328l135.168 143.36c11.264 12.288 27.648 18.944 44.032 18.944 16.384 0 32.768-7.168 44.032-18.944l134.144-142.848c9.728-10.752 9.216-26.624-0.512-35.84z"  horiz-adv-x="1024" />

    
    <glyph glyph-name="down2" unicode="&#58974;" d="M960 384C960 631.4200000000001 759.43 832 512 832s-448-200.58-448-448 200.58-448 448-448S960 136.58000000000004 960 384z m-437-181a32 32 0 0 0 0 45.25L626.74 352 320 352a32 32 0 0 0 0 64L626.74 416 523 519.76A32 32 0 0 0 568.24 565l158.39-158.37a32.11 32.11 0 0 0 0-45.26L568.24 203a32 32 0 0 0-45.24 0z"  horiz-adv-x="1024" />

    
    <glyph glyph-name="down1" unicode="&#58973;" d="M64 384C64 136.58000000000004 264.57-64 512-64s448 200.58 448 448-200.58 448-448 448S64 631.4200000000001 64 384z m437 181a32 32 0 0 0 0-45.25L397.26 416 704 416a32 32 0 0 0 0-64L397.26 352 501 248.24A32 32 0 0 0 455.76 203l-158.39 158.37a32.11 32.11 0 0 0 0 45.26L455.76 565a32 32 0 0 0 45.24 0z"  horiz-adv-x="1024" />

    
    <glyph glyph-name="down-fill" unicode="&#58972;" d="M512-64C759.42-64 960 136.57000000000005 960 384s-200.58 448-448 448-448-200.58-448-448S264.58-64 512-64z m-181 437a32 32 0 0 0 45.25 0L480 269.26 480 576a32 32 0 0 0 64 0L544 269.26 647.76 373A32 32 0 0 0 693 327.76l-158.37-158.39a32.11 32.11 0 0 0-45.26 0L331 327.76a32 32 0 0 0 0 45.24z"  horiz-adv-x="1024" />

    
    <glyph glyph-name="delete" unicode="&#58900;" d="M516.91308594 815.0077148400001c-88.15341797 0-159.69990234-69.88535156-162.7444336-157.62304687H148.66279297c-22.83310547 0-41.51513672-18.54404297-41.51513672-41.51601563 0-22.83398438 18.54404297-41.51689453 41.51601563-41.51689453h45.80595703v-464.428125c0-87.18398438 59.09150391-158.45361328 132.16113281-158.45361328h372.26074219c72.93164063 0 132.16113281 70.85390625 132.16113281 158.45361328V574.07490234h41.51601562c22.83398438 0 41.51601562 18.54492188 41.51601563 41.51689454 0 22.83398438-18.54404297 41.51601562-41.51601563 41.51601562H679.37978516C676.75009766 745.12148438 605.065625 815.00683594 516.91308594 815.00683594z m-84.97001953-157.62304687c3.04453125 44.97539063 39.71777344 79.84863281 85.10800781 79.84863281s82.06347656-35.01123047 84.69316406-79.84863281H431.94306641z m-105.45117188-628.27910156c-25.87851563 0-54.38671875 33.21298828-54.38671875 80.8180664V574.07490234h481.0350586V109.50878906000003c0-47.46708984-28.50820313-80.81894531-54.38671876-80.81894531H326.49189453v0.41572266z m0 0M382.26201172 128.88251952999997c18.95800781 0 34.59638672 18.95888672 34.59638672 42.76142578V415.62128906c0 23.80253906-15.49951172 42.76230469-34.59638672 42.76230469-18.95976562 0-34.59726563-18.95976562-34.59726563-42.76230469v-243.97734375c0-23.66367188 15.22265625-42.76142578 34.59726563-42.76142578z m125.240625 0c18.95888672 0 34.59638672 18.95888672 34.59638672 42.76142578V415.62128906c0 23.80253906-15.49951172 42.76230469-34.59638672 42.76230469-18.95888672 0-34.59726563-18.95976562-34.59726563-42.76230469v-243.97734375c0-23.66367188 15.63837891-42.76142578 34.59726563-42.76142578z m131.74453125 0c18.95888672 0 34.59726563 18.95888672 34.59726562 42.76142578V415.62128906c0 23.80253906-15.49951172 42.76230469-34.59726562 42.76230469-18.95888672 0-34.59638672-18.95976562-34.59638672-42.76230469v-243.97734375c0-23.66367188 15.08378906-42.76142578 34.59638672-42.76142578z m0 0"  horiz-adv-x="1024" />

    
    <glyph glyph-name="up-fill" unicode="&#58969;" d="M512 832C264.58 832 64 631.4300000000001 64 384s200.58-448 448-448 448 200.58 448 448S759.42 832 512 832z m181-437a32 32 0 0 0-45.25 0L544 498.74V192a32 32 0 0 0-64 0V498.74L376.24 395A32 32 0 0 0 331 440.24l158.37 158.39a32.11 32.11 0 0 0 45.26 0L693 440.24a32 32 0 0 0 0-45.24z"  horiz-adv-x="1024" />

    
    <glyph glyph-name="image" unicode="&#59025;" d="M165.789 775.49966667h783c22.5 0 40.5-18 40.5-40.5v-319.5c-40.5 31.5-117 81-175.5 81-85.5 0-162-198-256.5-198-72 4.5-171 85.5-283.5 72-45-9-108-81-148.5-135v499.5c0 22.5 18 40.5 40.5 40.5zM354.788 451.49966667c-36 0-67.5 13.5-90 36s-36 58.5-36 90c0 31.5 13.5 67.5 36 90 22.5 22.5 54 36 90 36 31.5 0 63-13.5 90-36 22.5-22.5 36-58.5 36-90 0-31.5-13.5-67.5-36-90-27-22.5-58.5-36-90-36zM971.288 833.99966667h-828c-45 0-81-36-81-81v-738c0-45 36-81 81-81h828c45 0 81 36 81 81v738c0 45-36 81-81 81z"  horiz-adv-x="1128" />

    
    <glyph glyph-name="image-upload" unicode="&#58938;" d="M643.15917969-47.57988280999996H167.18046875c-56.27988281 0-101.99970703 45.60029297-101.99970703 101.7V732.11982422C65.17988281 788.1 110.90058594 833.94023437 167.17958984 833.94023437H847.10058594c56.16035156 0 101.93994141-45.72070313 101.9399414-101.82041015v-474.60058594c0-18.65917969-15.24023438-34.07958984-34.01982421-34.07958984s-34.2 15.24023438-34.2 34.08046875v474.60058593c0 18.65917969-15.24023438 33.95917969-33.89941407 33.95917969H167.17871094c-18.71982422 0-34.2-15.3-34.2-33.96005859v-677.75976563c0-18.66005859 15.48017578-33.96005859 34.2-33.96005859h475.92070312c18.59941406 0 34.01982422-15.11982422 34.01982422-33.96005859 0.05976563-18.72070313-15.42041016-34.01982422-33.9609375-34.01982422zM99.19970703 155.69970703c-8.57988281 0-17.33994141 3.54023438-23.93964844 10.20058594-13.13964844 13.13964844-13.13964844 34.67988281 0 47.81953125l169.43994141 168.77988281c30.89970703 30.90058594 78.35976562 38.82041016 117.60029297 19.13994141L546.62011719 309.60058594c13.02011719-6.66035156 28.8-4.08076172 38.99970703 6.29912109l305.52011719 304.38017578c13.13964844 13.20029297 34.67988281 13.20029297 48.06035156 0 13.37958984-13.07988281 13.26005859-34.62011719 0-47.9399414l-305.63964844-304.38017579c-30.84082031-30.83994141-78.0609375-38.46005859-117.48076172-18.77958984L331.70117187 340.85976562999997c-13.13964844 6.66035156-28.74023438 3.96035156-39.00058593-6.3L123.25976562 166.02070313000002c-6.60058594-6.66035156-15.24023438-10.32099609-24.06005859-10.3209961zM371.12011719 494.93994141c-56.16035156 0-101.99970703 45.47988281-101.99970703 101.7 0 56.16035156 45.59941406 101.7 101.99970703 101.7 56.0390625 0 101.99970703-45.60029297 101.99970703-101.7 0-56.16035156-46.01953125-101.7-101.99970703-101.7z m0 135.47988281c-18.60029297 0-34.08046875-15.17958984-34.08046875-33.83964844 0-18.78046875 15.36064453-33.9609375 34.08046875-33.9609375 18.60029297 0 33.96005859 15.18046875 33.96005859 33.9609375 0 18.65917969-15.24023438 33.83964844-33.9609375 33.83964844zM795.73994141-66c-18.77958984 0-34.14023437 15.11982422-34.14023438 34.07958984V171.41982422c0 18.54052734 15.12070313 33.9609375 34.14023438 33.9609375 18.60029297 0 34.08046875-15.24023438 34.08046875-33.9609375v-203.34023438c-0.06064453-18.95976562-15.42041016-34.07958984-34.08046875-34.07958984zM931.58017578 70.85976561999996c-8.34082031 0-16.67988281 2.93994141-23.51953125 9.12041016l-112.38046875 105.60058594-112.92011719-105.60058594c-13.5-12.65976563-34.98046875-12.17988281-47.82041015 1.37988281-12.89970703 13.73994141-12.29941406 35.04023437 1.50029297 48.06035157L755.36035156 241.08017578c9.77958984 12.05947266 24.24023438 18.84023438 40.01923828 18.84023438 15.66035156 0 30.12011719-7.02070312 39.78017579-18.84023438l119.0399414-111.65976562c13.80058594-13.02011719 14.51953125-34.2 1.5600586-48.06035157-5.93964844-6.83964844-14.99941406-10.50029297-24.17958985-10.50029296z"  horiz-adv-x="1029" />

    
    <glyph glyph-name="upload" unicode="&#58968;" d="M737.311625 468.375a225 225 0 1 1-450 0 168.75 168.75 0 1 1 0-337.5v-56.25a225 225 0 0 0-51.75 444.0375 281.3625 281.3625 0 0 0 553.5 0A225.1125 225.1125 0 0 0 737.311625 74.625v56.25a168.75 168.75 0 0 1 0 337.5z m-450-337.5h112.5v-56.25H287.311625v56.25z m337.5 0h112.5v-56.25h-112.5v56.25zM535.767875 316.1625v-292.725a28.51875 28.51875 0 0 0-28.125-28.29375 28.51875 28.51875 0 0 0-28.125 28.29375V316.1625l-31.725-31.725a28.29375 28.29375 0 0 0-39.6 0.16875 27.7875 27.7875 0 0 0-0.16875 39.6l79.875 79.875a27.5625 27.5625 0 0 0 19.8 8.04375 26.4375 26.4375 0 0 0 19.6875-7.9875l79.875-79.93125a28.29375 28.29375 0 0 0-0.16875-39.6 27.7875 27.7875 0 0 0-39.6-0.16875l-31.725 31.725z"  horiz-adv-x="1024" />

    
    <glyph glyph-name="reply" unicode="&#58971;" d="M512 834.56c-248.832 0-450.56-201.728-450.56-450.56 0-123.392 49.664-235.52 130.048-316.928L121.344 5.12c-8.704-7.68-13.824-18.944-13.824-30.72 0-22.528 18.432-40.96 40.96-40.96h363.008c248.832 0 450.56 201.728 450.56 450.56 0.512 248.832-201.216 450.56-450.048 450.56z m-307.2-450.56c0 39.424 32.256 71.68 71.68 71.68s71.68-32.256 71.68-71.68-32.256-71.68-71.68-71.68-71.68 32.256-71.68 71.68z m378.88 0c0-39.424-32.256-71.68-71.68-71.68s-71.68 32.256-71.68 71.68 32.256 71.68 71.68 71.68 71.68-32.256 71.68-71.68z m235.52 0c0-39.424-32.256-71.68-71.68-71.68s-71.68 32.256-71.68 71.68 32.256 71.68 71.68 71.68 71.68-32.256 71.68-71.68z"  horiz-adv-x="1024" />

    
    <glyph glyph-name="no-fill" unicode="&#59020;" d="M664.96 265.6a32 32 0 0 0-22.4-54.72 32 32 0 0 0-22.72 9.28l-113.28 113.28-112.96-113.28a32 32 0 0 0-22.72-9.28 32 32 0 0 0-22.72 9.28 32 32 0 0 0 0 45.44l113.28 112.96-113.28 113.28a32 32 0 0 0 0 45.12 32 32 0 0 0 45.44 0l112.96-112.96 113.28 112.96a32 32 0 1 0 45.12-45.12l-112.96-113.28zM512 832a448 448 0 1 1 448-448A448 448 0 0 1 512 832z"  horiz-adv-x="1024" />

    
    <glyph glyph-name="yes-fill" unicode="&#58928;" d="M512 832C264.6 832 64 631.4 64 384s200.6-448 448-448 448 200.6 448 448S759.4 832 512 832z m219.2-347.2l-256-256c-7.5-7.5-17.3-11.2-27.2-11.2s-19.7 3.8-27.2 11.2l-128 128c-15 15-15 39.3 0 54.3s39.3 15 54.3 0L448 310.29999999999995l228.8 228.8c15 15 39.3 15 54.3 0s15.1-39.3 0.1-54.3z"  horiz-adv-x="1024" />

    
    <glyph glyph-name="search" unicode="&#59065;" d="M469.344 106.65599999999995c176.736 0 320 143.264 320 320s-143.264 320-320 320-320-143.264-320-320 143.264-320 320-320z m296.864 44.032l136.704-139.936a42.656 42.656 0 0 0-61.056-59.616l-140.096 143.424a403.488 403.488 0 0 0-232.416-73.216C245.44 21.34400000000005 64 202.784 64 426.656S245.472 832 469.344 832c223.84 0 405.312-181.472 405.312-405.344 0-106.592-41.152-203.584-108.448-275.968z"  horiz-adv-x="1024" />

    
    <glyph glyph-name="yes" unicode="&#58901;" d="M387.584 88.37120000000004c-15.1552 0-29.7984 6.0416-40.448 16.7936L119.1936 333.00480000000005c-22.3232 22.3232-22.3232 58.5728 0 80.9984 22.3232 22.3232 58.5728 22.3232 80.9984 0l187.392-187.392 436.3264 436.3264c22.3232 22.3232 58.5728 22.3232 80.9984 0 22.3232-22.3232 22.3232-58.5728 0-80.9984L428.032 105.16480000000001c-10.752-10.752-25.2928-16.7936-40.448-16.7936z"  horiz-adv-x="1024" />

    
    <glyph glyph-name="arrow-right" unicode="&#58902;" d="M309.9648-76.8c-14.1312 0-28.16 5.3248-38.912 16.0768-21.504 21.504-21.504 56.32 0 77.824l366.2848 366.2848-367.4112 367.4112c-21.504 21.504-21.504 56.32 0 77.824s56.32 21.504 77.824 0l406.3232-406.3232c21.504-21.504 21.504-56.32 0-77.824L348.8768-60.7232c-10.752-10.752-24.8832-16.0768-38.912-16.0768z"  horiz-adv-x="1024" />

    
    <glyph glyph-name="no" unicode="&#58907;" d="M582.144 384l324.9152 324.9152c19.3536 19.3536 19.3536 50.7904 0 70.144s-50.7904 19.3536-70.144 0L512 454.144 187.0848 779.0592c-19.3536 19.3536-50.7904 19.3536-70.144 0s-19.3536-50.7904 0-70.144L441.856 384 116.9408 59.0848c-19.3536-19.3536-19.3536-50.7904 0-70.144 9.728-9.728 22.4256-14.5408 35.0208-14.5408s25.3952 4.8128 35.0208 14.5408L512 313.856l324.9152-324.9152c9.728-9.728 22.3232-14.5408 35.0208-14.5408s25.3952 4.8128 35.0208 14.5408c19.3536 19.3536 19.3536 50.7904 0 70.144L582.144 384z"  horiz-adv-x="1024" />

    
    <glyph glyph-name="copy" unicode="&#59168;" d="M793.4 654.2h-20.8V664c0 92.8-74.50000001 168.30000001-166 168.30000001h-376c-91.50000001 0-166-75.50000001-166-168.30000001v-381.2c0-92.8 74.50000001-168.30000001 166-168.30000001h20.8v-9.79999998c0-92.8 74.50000001-168.30000001 166-168.30000001h376c91.50000001 0 166 75.50000001 166 168.30000001V485.90000001c0 92.8-74.50000001 168.30000001-166 168.29999999z m-542-168.30000001v-291.59999998h-20.8c-48.10000001 0-87.30000001 39.70000001-87.30000001 88.49999999V664c0 48.8 39.2 88.6 87.30000001 88.6h376c48.2 0 87.30000001-39.70000001 87.30000001-88.6v-9.8H417.4c-91.50000001 0-166-75.50000001-166-168.30000001z m629.30000001-381.19999998c0-48.8-39.2-88.50000001-87.30000001-88.50000001h-376c-48.2 0-87.30000001 39.70000001-87.29999999 88.50000001V485.90000001c0 48.8 39.2 88.6 87.29999999 88.59999998h376c48.2 0 87.30000001-39.70000001 87.30000001-88.6v-381.19999998z m-118 230.49999999h-118V454.8c0 21.90000001-17.70000001 39.90000001-39.30000001 39.90000001-21.6 0-39.30000001-17.90000001-39.29999999-39.90000001v-119.6h-118c-21.6 0-39.30000001-18-39.30000001-39.90000001s17.70000001-39.90000001 39.30000001-39.89999999h118v-119.6c0-21.90000001 17.70000001-39.90000001 39.29999999-39.90000001 21.6 0 39.30000001 17.90000001 39.30000001 39.90000001V255.49999999h118c21.6 0 39.30000001 17.90000001 39.29999999 39.90000001 0.10000001 21.90000001-17.6 39.8-39.29999999 39.8z"  horiz-adv-x="1024" />

    
    <glyph glyph-name="setting" unicode="&#58909;" d="M671.9 304.79999999999995c-6.7 0-13.3 2.6-18.2 7.9l-134.1 143c-2.7 2.9-5.9 3.3-7.6 3.3-1.7 0-4.9-0.4-7.6-3.3L368.9 312.6c-9.5-10-25.3-10.5-35.3-1-10 9.5-10.5 25.3-1 35.3L468 490.1c11.4 12.1 27.5 18.9 44 18.9 16.6 0 32.6-7 44-19.1l134.1-143c9.4-10.1 8.9-25.9-1.1-35.3-4.8-4.5-11-6.8-17.1-6.8zM511.5-59.89999999999998c-13 0-25.9 3.3-37.5 10L155 134.29999999999995c-23.1 13.4-37.5 38.2-37.5 65V567.7c0 26.7 14.4 51.6 37.5 65L474 816.9c23.1 13.4 51.9 13.4 75 0l319.1-184.2c23.1-13.4 37.5-38.2 37.5-65v-368.5c0-26.7-14.4-51.6-37.5-65L549-49.89999999999998c-11.5-6.7-24.5-10-37.5-10zM499 773.6L180 589.4c-7.7-4.5-12.5-12.7-12.5-21.7v-368.5c0-8.9 4.8-17.2 12.5-21.7l319-184.1c7.7-4.5 17.3-4.5 25 0l319.1 184.2c7.7 4.5 12.5 12.7 12.5 21.7V567.7c0 8.9-4.8 17.2-12.5 21.7L524 773.6c-7.7 4.5-17.2 4.5-25 0z"  horiz-adv-x="1024" />

    
    <glyph glyph-name="up" unicode="&#58935;" d="M342.016 632.3199999999999l75.776 72.192c10.24 9.728 26.112 9.216 35.84-0.512 4.608-4.608 7.168-11.264 7.168-17.92v-762.88c0-28.16 23.552-51.2 51.712-51.2h-0.512c28.16 0 51.2 23.04 51.2 51.2V685.056c0 22.528 27.648 34.304 44.032 18.432l74.752-71.68c20.48-19.456 52.736-18.432 72.192 2.048 18.944 20.48 17.92 52.224-2.048 71.68L581.12 867.84c-39.424 37.376-101.888 37.376-141.312-0.512L271.872 706.56c-19.968-18.944-20.992-50.688-2.048-71.168l0.512-0.512c18.944-20.48 51.2-22.016 71.68-2.56"  horiz-adv-x="1024" />

    
    <glyph glyph-name="arrow-left" unicode="&#60892;" d="M714.0352 844.8c14.13120001 0 28.16-5.3248 38.912-16.0768 21.504-21.504 21.504-56.32 0-77.824l-366.2848-366.2848 367.4112-367.4112c21.504-21.504 21.504-56.32 0-77.824s-56.32-21.504-77.824 0l-406.3232 406.3232c-21.504 21.504-21.504 56.32 0 77.824L675.1232 828.7232c10.752 10.752 24.8832 16.0768 38.912 16.0768z"  horiz-adv-x="1024" />

    
    <glyph glyph-name="arrow-down" unicode="&#60893;" d="M51.2 586.0352c0 14.13120001 5.3248 28.16 16.0768 38.912 21.504 21.504 56.32 21.504 77.824 0l366.2848-366.2848 367.4112 367.4112c21.504 21.504 56.32 21.504 77.824 0s21.504-56.32 0-77.824l-406.3232-406.3232c-21.504-21.504-56.32-21.504-77.824 0L67.2768 547.1232c-10.752 10.752-16.0768 24.8832-16.0768 38.912z"  horiz-adv-x="1024" />

    
    <glyph glyph-name="arrow-up" unicode="&#60894;" d="M972.8 181.96479999999997c0-14.13120001-5.3248-28.16-16.0768-38.912-21.504-21.504-56.32-21.504-77.824 0l-366.2848 366.2848-367.4112-367.4112c-21.504-21.504-56.32-21.504-77.824 0s-21.504 56.32 0 77.824l406.3232 406.3232c21.504 21.504 56.32 21.504 77.824 0L956.7232 220.8768c10.752-10.752 16.0768-24.8832 16.0768-38.912z"  horiz-adv-x="1024" />

    
    <glyph glyph-name="down" unicode="&#60895;" d="M681.984 135.67999999999995l-75.776-72.192c-10.24-9.728-26.112-9.21600001-35.84000001 0.512-4.608 4.608-7.168 11.264-7.16799999 17.92l0 762.88c0 28.16-23.552 51.2-51.712 51.2l0.512 0c-28.16 0-51.2-23.04-51.2-51.2L460.8 82.94399999999996c0-22.528-27.648-34.304-44.032-18.432l-74.752 71.68c-20.47999999 19.456-52.736 18.432-72.192-2.048-18.944-20.48-17.92-52.224 2.048-71.68L442.88-99.83999999000002c39.424-37.376 101.888-37.376 141.312 0.51199999L752.128 61.440000000000055c19.968 18.944 20.99200001 50.688 2.048 71.16799999l-0.51200001 0.51200001c-18.944 20.48-51.2 22.016-71.67999999 2.56"  horiz-adv-x="1024" />

    
    <glyph glyph-name="right" unicode="&#60896;" d="M760.32 553.9839999999999l72.192-75.776c9.728-10.24 9.21600001-26.112-0.512-35.84000001-4.608-4.608-11.264-7.168-17.92-7.16799999l-762.88 0c-28.16 0-51.2-23.552-51.2-51.712l0 0.512c0-28.16 23.04-51.2 51.2-51.2L813.056 332.79999999999995c22.528 0 34.304-27.648 18.432-44.032l-71.68-74.752c-19.456-20.47999999-18.432-52.736 2.048-72.192 20.48-18.944 52.224-17.92 71.68 2.048L995.83999999 314.88c37.376 39.424 37.376 101.888-0.51199999 141.312L834.56 624.1279999999999c-18.944 19.968-50.688 20.99200001-71.16799999 2.048l-0.51200001-0.51200001c-20.48-18.944-22.016-51.2-2.56-71.67999999"  horiz-adv-x="1024" />

    
    <glyph glyph-name="left" unicode="&#60897;" d="M263.68 214.01599999999996l-72.192 75.776c-9.728 10.24-9.21600001 26.112 0.512 35.84000001 4.608 4.608 11.264 7.168 17.92 7.16799999l762.88 0c28.16 0 51.2 23.552 51.2 51.712l0-0.512c0 28.16-23.04 51.2-51.2 51.2L210.944 435.2c-22.528 0-34.304 27.648-18.432 44.032l71.68 74.752c19.456 20.47999999 18.432 52.736-2.048 72.192-20.48 18.944-52.224 17.92-71.68-2.048L28.16000001 453.12c-37.376-39.424-37.376-101.888 0.51199999-141.312L189.44 143.87199999999996c18.944-19.968 50.688-20.99200001 71.16799999-2.048l0.51200001 0.51200001c20.48 18.944 22.016 51.2 2.56 71.67999999"  horiz-adv-x="1024" />

    


  </font>
</defs>
</svg>
